<?xml version="1.0" standalone="no"?>
<!DOCTYPE svg PUBLIC "-//W3C//DTD SVG 20010904//EN"
 "http://www.w3.org/TR/2001/REC-SVG-20010904/DTD/svg10.dtd">
<svg version="1.0" xmlns="http://www.w3.org/2000/svg"
 width="736.000000pt" height="736.000000pt" viewBox="0 0 736.000000 736.000000"
 preserveAspectRatio="xMidYMid meet">

<g transform="translate(0.000000,736.000000) scale(0.100000,-0.100000)"
fill="#000000" stroke="none">
<path d="M4477 6325 c-168 -32 -74 15 -1592 -790 -506 -268 -947 -506 -980
-530 -75 -53 -194 -178 -242 -252 -98 -153 -142 -295 -150 -478 -11 -271 74
-506 250 -692 132 -139 213 -190 465 -293 84 -35 151 -64 150 -65 -2 -2 -96
-53 -211 -114 -245 -130 -279 -153 -373 -246 -118 -117 -211 -277 -256 -440
-31 -116 -31 -364 0 -480 65 -237 227 -452 433 -577 244 -148 567 -180 827
-82 61 23 290 140 727 374 39 21 113 60 165 88 52 27 403 213 780 412 458 242
710 381 759 418 86 65 185 178 242 273 160 269 171 627 29 911 -54 109 -93
162 -185 253 -103 104 -194 159 -401 246 -92 38 -172 73 -177 76 -5 3 85 56
200 117 270 145 282 153 383 255 178 179 265 374 277 626 13 281 -82 522 -286
725 -131 130 -269 207 -446 251 -107 27 -286 33 -388 14z m408 -286 c116 -44
188 -93 274 -185 77 -82 139 -195 166 -304 21 -79 23 -234 6 -313 -31 -141
-110 -278 -217 -376 -67 -61 -81 -70 -411 -243 l-253 -133 0 -155 0 -156 251
-103 c139 -57 279 -119 311 -138 98 -58 200 -169 253 -276 25 -51 53 -121 62
-157 22 -85 22 -243 0 -330 -38 -146 -140 -305 -250 -388 -31 -23 -242 -141
-469 -261 -227 -120 -735 -388 -1128 -597 -393 -208 -742 -388 -775 -400 -231
-84 -503 -34 -697 128 -97 81 -189 232 -224 368 -23 85 -23 244 -1 330 37 143
136 300 243 383 30 24 186 113 345 197 l289 153 -2 155 -3 155 -245 101 c-135
56 -270 115 -300 131 -69 38 -204 172 -248 247 -76 128 -112 299 -93 436 22
164 78 285 189 403 34 37 91 85 125 107 34 21 393 214 797 427 404 213 753
398 775 410 22 12 195 103 385 203 411 216 433 224 625 219 119 -4 137 -7 220
-38z"/>
<path d="M3040 3786 c0 -372 3 -676 6 -676 6 0 1256 660 1266 669 6 5 -354
199 -1124 604 l-148 78 0 -675z"/>
</g>
</svg>
